<svg xmlns="http://www.w3.org/2000/svg" width="640" height="360" viewBox="0 0 640 360" fill="none"><defs><filter id="shadow" x="111" y="39" width="420" height="300" color-interpolation-filters="sRGB" filterUnits="userSpaceOnUse"><feGaussianBlur stdDeviation="12"/></filter><linearGradient id="land" x1="188" y1="146" x2="438" y2="257" gradientUnits="userSpaceOnUse"><stop stop-color="#8FAFFF"/><stop offset="1" stop-color="#315FDA"/></linearGradient></defs><circle cx="124" cy="181" r="12" fill="#FF7B72"/><circle cx="511" cy="102" r="18" fill="#F4C54C"/><circle cx="531" cy="267" r="9" fill="#3CA874"/><path d="M143 89c69-32 121-39 193-18m-222 233c43 16 78 14 119-3" stroke="#A8B8DE" stroke-width="3" stroke-linecap="round" stroke-dasharray="2 12"/><rect x="139" y="70" width="363" height="230" rx="28" fill="#101727" opacity=".16" filter="url(#shadow)"/><g transform="rotate(-7 314 177)"><rect x="157" y="75" width="321" height="214" rx="24" fill="#D8CFFF"/><rect x="157" y="68" width="321" height="214" rx="24" fill="#F0EDFF"/></g><g transform="rotate(4 328 184)"><rect x="174" y="87" width="321" height="214" rx="24" fill="#E5EBFA"/><rect x="174" y="78" width="321" height="214" rx="24" fill="#fff" stroke="#E2E7F2" stroke-width="3"/><path d="M174 102c67-10 113 18 166 8 61-12 97-18 155 9v24H174v-41Z" fill="#AFA5FF"/><circle cx="427" cy="138" r="18" fill="#F4C54C"/><path d="M190 188c38-44 77-53 112-27 38 28 64 3 99 10 31 6 50 27 68 45v44H190v-72Z" fill="url(#land)"/><path d="M190 230c53-25 77-10 117-27 39-17 88 13 162-2v59H190v-30Z" fill="#244FB8"/><path d="M223 161h70" stroke="#64749A" stroke-width="5" stroke-linecap="round"/><path d="M223 177h111" stroke="#CBD3E5" stroke-width="4" stroke-linecap="round"/></g><path d="M293 319c17-9 36-9 53 0" stroke="#315FDA" stroke-width="7" stroke-linecap="round"/></svg>
